<svg width="296" height="45" viewBox="0 0 296 45" fill="none" xmlns="http://www.w3.org/2000/svg">
<rect x="1" y="1" width="58" height="43" stroke="#335568" stroke-width="2"/>
<circle cx="14.25" cy="12.25" r="4.75" stroke="#335568" stroke-width="2"/>
<path d="M3.5 38.5L24 19.5L39 35.5" stroke="#335568" stroke-width="2"/>
<path d="M21 34L41.5 15L56.5 31" stroke="#335568" stroke-width="2"/>
<path d="M82.954 32.448C79.5833 32.448 76.7993 31.328 74.602 29.088C72.4047 26.848 71.306 24.0853 71.306 20.8C71.306 17.4933 72.4047 14.7307 74.602 12.512C76.7993 10.272 79.5833 9.152 82.954 9.152C84.9807 9.152 86.8473 9.632 88.554 10.592C90.282 11.5307 91.626 12.8107 92.586 14.432L88.778 16.64C88.2233 15.6373 87.434 14.8587 86.41 14.304C85.386 13.728 84.234 13.44 82.954 13.44C80.778 13.44 79.018 14.1227 77.674 15.488C76.3513 16.8533 75.69 18.624 75.69 20.8C75.69 22.9547 76.3513 24.7147 77.674 26.08C79.018 27.4453 80.778 28.128 82.954 28.128C84.234 28.128 85.386 27.8507 86.41 27.296C87.4553 26.72 88.2447 25.9413 88.778 24.96L92.586 27.168C91.626 28.7893 90.2927 30.08 88.586 31.04C86.8793 31.9787 85.002 32.448 82.954 32.448ZM108.833 30.016C107.19 31.6373 105.185 32.448 102.817 32.448C100.449 32.448 98.4432 31.6373 96.8005 30.016C95.1792 28.3733 94.3685 26.368 94.3685 24C94.3685 21.632 95.1792 19.6373 96.8005 18.016C98.4432 16.3733 100.449 15.552 102.817 15.552C105.185 15.552 107.19 16.3733 108.833 18.016C110.475 19.6373 111.297 21.632 111.297 24C111.297 26.368 110.475 28.3733 108.833 30.016ZM99.7125 27.168C100.545 28 101.579 28.416 102.817 28.416C104.054 28.416 105.089 28 105.921 27.168C106.753 26.336 107.169 25.28 107.169 24C107.169 22.72 106.753 21.664 105.921 20.832C105.089 20 104.054 19.584 102.817 19.584C101.579 19.584 100.545 20 99.7125 20.832C98.9018 21.664 98.4965 22.72 98.4965 24C98.4965 25.28 98.9018 26.336 99.7125 27.168ZM131.897 15.552C133.731 15.552 135.193 16.1493 136.281 17.344C137.39 18.5387 137.945 20.1387 137.945 22.144V32H133.817V22.432C133.817 21.472 133.582 20.7253 133.113 20.192C132.643 19.6587 131.982 19.392 131.128 19.392C130.19 19.392 129.454 19.7013 128.921 20.32C128.409 20.9387 128.153 21.8347 128.153 23.008V32H124.025V22.432C124.025 21.472 123.79 20.7253 123.321 20.192C122.851 19.6587 122.19 19.392 121.337 19.392C120.419 19.392 119.683 19.7013 119.129 20.32C118.595 20.9387 118.329 21.8347 118.329 23.008V32H114.201V16H118.329V17.696C119.289 16.2667 120.771 15.552 122.777 15.552C124.739 15.552 126.19 16.32 127.129 17.856C128.195 16.32 129.785 15.552 131.897 15.552ZM150.763 15.552C152.917 15.552 154.752 16.3733 156.267 18.016C157.803 19.6373 158.571 21.632 158.571 24C158.571 26.368 157.803 28.3733 156.267 30.016C154.752 31.6373 152.917 32.448 150.763 32.448C148.523 32.448 146.795 31.6693 145.579 30.112V38.4H141.451V16H145.579V17.888C146.795 16.3307 148.523 15.552 150.763 15.552ZM146.827 27.264C147.659 28.096 148.715 28.512 149.995 28.512C151.275 28.512 152.331 28.096 153.163 27.264C154.016 26.4107 154.443 25.3227 154.443 24C154.443 22.6773 154.016 21.6 153.163 20.768C152.331 19.9147 151.275 19.488 149.995 19.488C148.715 19.488 147.659 19.9147 146.827 20.768C145.995 21.6 145.579 22.6773 145.579 24C145.579 25.3227 145.995 26.4107 146.827 27.264ZM173.642 16H177.77V32H173.642V30.112C172.404 31.6693 170.666 32.448 168.426 32.448C166.292 32.448 164.458 31.6373 162.922 30.016C161.407 28.3733 160.65 26.368 160.65 24C160.65 21.632 161.407 19.6373 162.922 18.016C164.458 16.3733 166.292 15.552 168.426 15.552C170.666 15.552 172.404 16.3307 173.642 17.888V16ZM166.026 27.264C166.858 28.096 167.914 28.512 169.194 28.512C170.474 28.512 171.53 28.096 172.362 27.264C173.215 26.4107 173.642 25.3227 173.642 24C173.642 22.6773 173.215 21.6 172.362 20.768C171.53 19.9147 170.474 19.488 169.194 19.488C167.914 19.488 166.858 19.9147 166.026 20.768C165.194 21.6 164.778 22.6773 164.778 24C164.778 25.3227 165.194 26.4107 166.026 27.264ZM190.409 15.552C192.158 15.552 193.598 16.1387 194.729 17.312C195.881 18.4853 196.457 20.1067 196.457 22.176V32H192.329V22.688C192.329 21.6213 192.041 20.8107 191.465 20.256C190.889 19.68 190.121 19.392 189.161 19.392C188.094 19.392 187.241 19.7227 186.601 20.384C185.961 21.0453 185.641 22.0373 185.641 23.36V32H181.513V16H185.641V17.792C186.644 16.2987 188.233 15.552 190.409 15.552ZM210.07 16H214.486L208.662 32C207.83 34.304 206.721 35.968 205.334 36.992C203.969 38.0373 202.262 38.5067 200.214 38.4V34.56C201.323 34.5813 202.198 34.3467 202.838 33.856C203.499 33.3653 204.022 32.576 204.406 31.488L197.846 16H202.358L206.518 26.752L210.07 16ZM229.059 27.776H237.603V32H224.643V9.6H229.059V27.776ZM253.239 30.016C251.596 31.6373 249.591 32.448 247.223 32.448C244.855 32.448 242.849 31.6373 241.207 30.016C239.585 28.3733 238.775 26.368 238.775 24C238.775 21.632 239.585 19.6373 241.207 18.016C242.849 16.3733 244.855 15.552 247.223 15.552C249.591 15.552 251.596 16.3733 253.239 18.016C254.881 19.6373 255.703 21.632 255.703 24C255.703 26.368 254.881 28.3733 253.239 30.016ZM244.119 27.168C244.951 28 245.985 28.416 247.223 28.416C248.46 28.416 249.495 28 250.327 27.168C251.159 26.336 251.575 25.28 251.575 24C251.575 22.72 251.159 21.664 250.327 20.832C249.495 20 248.46 19.584 247.223 19.584C245.985 19.584 244.951 20 244.119 20.832C243.308 21.664 242.903 22.72 242.903 24C242.903 25.28 243.308 26.336 244.119 27.168ZM270.863 16H274.895V31.232C274.895 33.7067 274.073 35.5947 272.431 36.896C270.809 38.1973 268.847 38.848 266.543 38.848C264.815 38.848 263.289 38.5173 261.967 37.856C260.665 37.1947 259.663 36.224 258.959 34.944L262.479 32.928C263.289 34.4213 264.687 35.168 266.671 35.168C267.972 35.168 268.996 34.8267 269.743 34.144C270.489 33.4613 270.863 32.4907 270.863 31.232V29.504C269.647 31.1253 267.94 31.936 265.743 31.936C263.481 31.936 261.583 31.1467 260.047 29.568C258.532 27.968 257.775 26.0267 257.775 23.744C257.775 21.4827 258.543 19.552 260.079 17.952C261.615 16.352 263.503 15.552 265.743 15.552C267.94 15.552 269.647 16.3627 270.863 17.984V16ZM263.151 26.912C264.004 27.7227 265.081 28.128 266.383 28.128C267.684 28.128 268.751 27.7227 269.583 26.912C270.436 26.08 270.863 25.024 270.863 23.744C270.863 22.4853 270.436 21.4507 269.583 20.64C268.751 19.808 267.684 19.392 266.383 19.392C265.081 19.392 264.004 19.808 263.151 20.64C262.319 21.4507 261.903 22.4853 261.903 23.744C261.903 25.024 262.319 26.08 263.151 26.912ZM292.27 30.016C290.627 31.6373 288.622 32.448 286.254 32.448C283.886 32.448 281.881 31.6373 280.238 30.016C278.617 28.3733 277.806 26.368 277.806 24C277.806 21.632 278.617 19.6373 280.238 18.016C281.881 16.3733 283.886 15.552 286.254 15.552C288.622 15.552 290.627 16.3733 292.27 18.016C293.913 19.6373 294.734 21.632 294.734 24C294.734 26.368 293.913 28.3733 292.27 30.016ZM283.15 27.168C283.982 28 285.017 28.416 286.254 28.416C287.491 28.416 288.526 28 289.358 27.168C290.19 26.336 290.606 25.28 290.606 24C290.606 22.72 290.19 21.664 289.358 20.832C288.526 20 287.491 19.584 286.254 19.584C285.017 19.584 283.982 20 283.15 20.832C282.339 21.664 281.934 22.72 281.934 24C281.934 25.28 282.339 26.336 283.15 27.168Z" fill="#335568"/>
</svg>
